M48
METRIC,TZ
T1C0.305
%
T1
X47073Y22051
X49578Y24516
X51604Y18425
X45724Y24169
X46624Y21342
X29419Y24879
X46906Y30576
X1124Y33875
X9251Y33875
X17378Y33875
X25505Y33875
X33633Y33875
X41760Y33875
X49887Y33875
X58014Y33875
X66141Y33875
X74269Y33875
X82396Y33875
X90523Y33875
X98650Y33875
X106777Y33875
X114905Y33875
X123032Y33875
X131159Y33875
X139286Y33875
X147414Y33875
X155541Y33875
X163668Y33875
X171795Y33875
X179922Y33875
X183875Y21574
X183875Y13446
X183875Y5319
X171816Y1124
X163689Y1124
X155562Y1124
X147435Y1124
X139307Y1124
X131180Y1124
X123053Y1124
X114926Y1124
X106799Y1124
X98671Y1124
X90544Y1124
X82417Y1124
X74290Y1124
X66163Y1124
X58035Y1124
X49908Y1124
X41781Y1124
X33654Y1124
X25526Y1124
X17399Y1124
X9272Y1124
X1145Y1124
X1124Y9230
X1124Y17357
X1124Y25484
X13444Y16231
X21569Y16205
X29696Y16205
X37823Y16205
X43687Y10740
X71784Y10104
X66037Y15850
X60290Y21597
X18206Y23717
X10079Y23717
X50458Y17618
X27596Y23955
X39356Y25722
X98197Y9251
X91901Y13962
X83807Y13916
X76794Y16587
X71047Y22334
X80134Y25748
X88261Y25748
X96388Y25748
X104516Y25748
X112643Y25748
X120770Y25748
X128897Y25748
X137024Y25748
X145152Y25748
X153279Y25748
X161406Y25748
X169533Y25748
X175748Y15708
X165951Y9251
X157824Y9251
X149696Y9251
X141569Y9251
X133442Y9251
X125315Y9251
X117188Y9251
X109060Y9251
X101878Y17621
X110005Y17621
X118132Y17621
X126260Y17621
X134387Y17621
X142514Y17621
X150641Y17621
X158768Y17621
X166896Y17621
M30