<svg xmlns="http://www.w3.org/2000/svg" viewBox="0 0 780 300" font-family="monospace">
<rect width="780" height="300" fill="#1a1a2e"/>
<text x="390.0" y="16" text-anchor="middle" fill="white" font-size="14" font-weight="bold">VIGIL Headband v1.0 — PCB Component Layout (185mm x 35mm Flex)</text>
<rect x="20" y="20" width="740" height="140" fill="#c4841d" stroke="#e6a230" stroke-width="2" rx="2"/>
<rect x="100" y="20" width="168" height="140" fill="none" stroke="#fbbf24" stroke-width="1.5" stroke-dasharray="8,4"/>
<text x="184" y="14.0" text-anchor="middle" fill="#fbbf24" font-size="9">COMPONENT ISLAND</text>
<text x="500" y="90.0" text-anchor="middle" fill="#e6a230" font-size="10" opacity="0.7">— FLEX TAIL —</text>
<rect x="700" y="40" width="48" height="40" fill="none" stroke="#f97316" stroke-width="1" stroke-dasharray="4,3"/>
<text x="724" y="34.0" text-anchor="middle" fill="#f97316" font-size="7">PVDF PADS</text>
<text x="724" y="84" text-anchor="middle" fill="#f97316" font-size="6">(Temple 2)</text>
<rect x="28" y="40" width="56" height="100" fill="none" stroke="#60a5fa" stroke-width="1" stroke-dasharray="4,3"/>
<text x="56" y="34.0" text-anchor="middle" fill="#60a5fa" font-size="7">BLE ANTENNA</text>
<rect x="20" y="20" width="740" height="140" fill="#854d0e" opacity="0.15"/>
<circle cx="24.496000000000002" cy="24.496000000000002" r="1.2" fill="#a3a3a3" stroke="#737373" stroke-width="0.5" opacity="0.6"/>
<circle cx="57.004" cy="24.496000000000002" r="1.2" fill="#a3a3a3" stroke="#737373" stroke-width="0.5" opacity="0.6"/>
<circle cx="89.512" cy="24.496000000000002" r="1.2" fill="#a3a3a3" stroke="#737373" stroke-width="0.5" opacity="0.6"/>
<circle cx="122.02" cy="24.496000000000002" r="1.2" fill="#a3a3a3" stroke="#737373" stroke-width="0.5" opacity="0.6"/>
<circle cx="154.532" cy="24.496000000000002" r="1.2" fill="#a3a3a3" stroke="#737373" stroke-width="0.5" opacity="0.6"/>
<circle cx="187.04" cy="24.496000000000002" r="1.2" fill="#a3a3a3" stroke="#737373" stroke-width="0.5" opacity="0.6"/>
<circle cx="219.548" cy="24.496000000000002" r="1.2" fill="#a3a3a3" stroke="#737373" stroke-width="0.5" opacity="0.6"/>
<circle cx="252.056" cy="24.496000000000002" r="1.2" fill="#a3a3a3" stroke="#737373" stroke-width="0.5" opacity="0.6"/>
<circle cx="284.564" cy="24.496000000000002" r="1.2" fill="#a3a3a3" stroke="#737373" stroke-width="0.5" opacity="0.6"/>
<circle cx="317.076" cy="24.496000000000002" r="1.2" fill="#a3a3a3" stroke="#737373" stroke-width="0.5" opacity="0.6"/>
<circle cx="349.584" cy="24.496000000000002" r="1.2" fill="#a3a3a3" stroke="#737373" stroke-width="0.5" opacity="0.6"/>
<circle cx="382.092" cy="24.496000000000002" r="1.2" fill="#a3a3a3" stroke="#737373" stroke-width="0.5" opacity="0.6"/>
<circle cx="414.6" cy="24.496000000000002" r="1.2" fill="#a3a3a3" stroke="#737373" stroke-width="0.5" opacity="0.6"/>
<circle cx="447.108" cy="24.496000000000002" r="1.2" fill="#a3a3a3" stroke="#737373" stroke-width="0.5" opacity="0.6"/>
<circle cx="479.62" cy="24.496000000000002" r="1.2" fill="#a3a3a3" stroke="#737373" stroke-width="0.5" opacity="0.6"/>
<circle cx="512.1279999999999" cy="24.496000000000002" r="1.2" fill="#a3a3a3" stroke="#737373" stroke-width="0.5" opacity="0.6"/>
<circle cx="544.636" cy="24.496000000000002" r="1.2" fill="#a3a3a3" stroke="#737373" stroke-width="0.5" opacity="0.6"/>
<circle cx="577.144" cy="24.496000000000002" r="1.2" fill="#a3a3a3" stroke="#737373" stroke-width="0.5" opacity="0.6"/>
<circle cx="609.656" cy="24.496000000000002" r="1.2" fill="#a3a3a3" stroke="#737373" stroke-width="0.5" opacity="0.6"/>
<circle cx="642.164" cy="24.496000000000002" r="1.2" fill="#a3a3a3" stroke="#737373" stroke-width="0.5" opacity="0.6"/>
<circle cx="674.672" cy="24.496000000000002" r="1.2" fill="#a3a3a3" stroke="#737373" stroke-width="0.5" opacity="0.6"/>
<circle cx="707.18" cy="24.496000000000002" r="1.2" fill="#a3a3a3" stroke="#737373" stroke-width="0.5" opacity="0.6"/>
<circle cx="24.496000000000002" cy="155.5" r="1.2" fill="#a3a3a3" stroke="#737373" stroke-width="0.5" opacity="0.6"/>
<circle cx="57.004" cy="155.5" r="1.2" fill="#a3a3a3" stroke="#737373" stroke-width="0.5" opacity="0.6"/>
<circle cx="89.512" cy="155.5" r="1.2" fill="#a3a3a3" stroke="#737373" stroke-width="0.5" opacity="0.6"/>
<circle cx="122.02" cy="155.5" r="1.2" fill="#a3a3a3" stroke="#737373" stroke-width="0.5" opacity="0.6"/>
<circle cx="154.532" cy="155.5" r="1.2" fill="#a3a3a3" stroke="#737373" stroke-width="0.5" opacity="0.6"/>
<circle cx="187.04" cy="155.5" r="1.2" fill="#a3a3a3" stroke="#737373" stroke-width="0.5" opacity="0.6"/>
<circle cx="219.548" cy="155.5" r="1.2" fill="#a3a3a3" stroke="#737373" stroke-width="0.5" opacity="0.6"/>
<circle cx="252.056" cy="155.5" r="1.2" fill="#a3a3a3" stroke="#737373" stroke-width="0.5" opacity="0.6"/>
<circle cx="284.564" cy="155.5" r="1.2" fill="#a3a3a3" stroke="#737373" stroke-width="0.5" opacity="0.6"/>
<circle cx="317.076" cy="155.5" r="1.2" fill="#a3a3a3" stroke="#737373" stroke-width="0.5" opacity="0.6"/>
<circle cx="349.584" cy="155.5" r="1.2" fill="#a3a3a3" stroke="#737373" stroke-width="0.5" opacity="0.6"/>
<circle cx="382.092" cy="155.5" r="1.2" fill="#a3a3a3" stroke="#737373" stroke-width="0.5" opacity="0.6"/>
<circle cx="414.6" cy="155.5" r="1.2" fill="#a3a3a3" stroke="#737373" stroke-width="0.5" opacity="0.6"/>
<circle cx="447.108" cy="155.5" r="1.2" fill="#a3a3a3" stroke="#737373" stroke-width="0.5" opacity="0.6"/>
<circle cx="479.62" cy="155.5" r="1.2" fill="#a3a3a3" stroke="#737373" stroke-width="0.5" opacity="0.6"/>
<circle cx="512.1279999999999" cy="155.5" r="1.2" fill="#a3a3a3" stroke="#737373" stroke-width="0.5" opacity="0.6"/>
<circle cx="544.636" cy="155.5" r="1.2" fill="#a3a3a3" stroke="#737373" stroke-width="0.5" opacity="0.6"/>
<circle cx="577.144" cy="155.5" r="1.2" fill="#a3a3a3" stroke="#737373" stroke-width="0.5" opacity="0.6"/>
<circle cx="609.656" cy="155.5" r="1.2" fill="#a3a3a3" stroke="#737373" stroke-width="0.5" opacity="0.6"/>
<circle cx="642.164" cy="155.5" r="1.2" fill="#a3a3a3" stroke="#737373" stroke-width="0.5" opacity="0.6"/>
<circle cx="674.672" cy="155.5" r="1.2" fill="#a3a3a3" stroke="#737373" stroke-width="0.5" opacity="0.6"/>
<circle cx="707.18" cy="155.5" r="1.2" fill="#a3a3a3" stroke="#737373" stroke-width="0.5" opacity="0.6"/>
<circle cx="739.688" cy="155.5" r="1.2" fill="#a3a3a3" stroke="#737373" stroke-width="0.5" opacity="0.6"/>
<circle cx="755.5" cy="41.275999999999996" r="1.2" fill="#a3a3a3" stroke="#737373" stroke-width="0.5" opacity="0.6"/>
<circle cx="755.5" cy="73.78399999999999" r="1.2" fill="#a3a3a3" stroke="#737373" stroke-width="0.5" opacity="0.6"/>
<circle cx="755.5" cy="106.296" r="1.2" fill="#a3a3a3" stroke="#737373" stroke-width="0.5" opacity="0.6"/>
<circle cx="24.496000000000002" cy="56.92" r="1.2" fill="#a3a3a3" stroke="#737373" stroke-width="0.5" opacity="0.6"/>
<circle cx="24.496000000000002" cy="89.428" r="1.2" fill="#a3a3a3" stroke="#737373" stroke-width="0.5" opacity="0.6"/>
<circle cx="24.496000000000002" cy="121.936" r="1.2" fill="#a3a3a3" stroke="#737373" stroke-width="0.5" opacity="0.6"/>
<circle cx="208.292" cy="108.204" r="1.2" fill="#a3a3a3" stroke="#737373" stroke-width="0.5" opacity="0.6"/>
<circle cx="218.312" cy="118.064" r="1.2" fill="#a3a3a3" stroke="#737373" stroke-width="0.5" opacity="0.6"/>
<circle cx="226.416" cy="93.7" r="1.2" fill="#a3a3a3" stroke="#737373" stroke-width="0.5" opacity="0.6"/>
<circle cx="202.896" cy="116.676" r="1.2" fill="#a3a3a3" stroke="#737373" stroke-width="0.5" opacity="0.6"/>
<circle cx="206.496" cy="105.368" r="1.2" fill="#a3a3a3" stroke="#737373" stroke-width="0.5" opacity="0.6"/>
<circle cx="137.676" cy="119.516" r="1.2" fill="#a3a3a3" stroke="#737373" stroke-width="0.5" opacity="0.6"/>
<circle cx="207.624" cy="142.304" r="1.2" fill="#a3a3a3" stroke="#737373" stroke-width="0.5" opacity="0.6"/>
<circle cx="73.77600000000001" cy="84.924" r="1.2" fill="#a3a3a3" stroke="#737373" stroke-width="0.5" opacity="0.6"/>
<circle cx="106.276" cy="84.82" r="1.2" fill="#a3a3a3" stroke="#737373" stroke-width="0.5" opacity="0.6"/>
<circle cx="138.784" cy="84.82" r="1.2" fill="#a3a3a3" stroke="#737373" stroke-width="0.5" opacity="0.6"/>
<circle cx="171.292" cy="84.82" r="1.2" fill="#a3a3a3" stroke="#737373" stroke-width="0.5" opacity="0.6"/>
<circle cx="194.748" cy="62.96" r="1.2" fill="#a3a3a3" stroke="#737373" stroke-width="0.5" opacity="0.6"/>
<circle cx="307.136" cy="60.416" r="1.2" fill="#a3a3a3" stroke="#737373" stroke-width="0.5" opacity="0.6"/>
<circle cx="284.148" cy="83.4" r="1.2" fill="#a3a3a3" stroke="#737373" stroke-width="0.5" opacity="0.6"/>
<circle cx="261.15999999999997" cy="106.388" r="1.2" fill="#a3a3a3" stroke="#737373" stroke-width="0.5" opacity="0.6"/>
<circle cx="92.824" cy="114.868" r="1.2" fill="#a3a3a3" stroke="#737373" stroke-width="0.5" opacity="0.6"/>
<circle cx="60.316" cy="114.868" r="1.2" fill="#a3a3a3" stroke="#737373" stroke-width="0.5" opacity="0.6"/>
<circle cx="221.832" cy="90.472" r="1.2" fill="#a3a3a3" stroke="#737373" stroke-width="0.5" opacity="0.6"/>
<circle cx="130.38400000000001" cy="115.82" r="1.2" fill="#a3a3a3" stroke="#737373" stroke-width="0.5" opacity="0.6"/>
<circle cx="177.424" cy="122.888" r="1.2" fill="#a3a3a3" stroke="#737373" stroke-width="0.5" opacity="0.6"/>
<circle cx="412.788" cy="57.004" r="1.2" fill="#a3a3a3" stroke="#737373" stroke-width="0.5" opacity="0.6"/>
<circle cx="387.604" cy="75.848" r="1.2" fill="#a3a3a3" stroke="#737373" stroke-width="0.5" opacity="0.6"/>
<circle cx="355.228" cy="75.664" r="1.2" fill="#a3a3a3" stroke="#737373" stroke-width="0.5" opacity="0.6"/>
<circle cx="327.176" cy="86.348" r="1.2" fill="#a3a3a3" stroke="#737373" stroke-width="0.5" opacity="0.6"/>
<circle cx="304.188" cy="109.336" r="1.2" fill="#a3a3a3" stroke="#737373" stroke-width="0.5" opacity="0.6"/>
<circle cx="340.536" cy="122.992" r="1.2" fill="#a3a3a3" stroke="#737373" stroke-width="0.5" opacity="0.6"/>
<circle cx="373.044" cy="122.992" r="1.2" fill="#a3a3a3" stroke="#737373" stroke-width="0.5" opacity="0.6"/>
<circle cx="405.552" cy="122.992" r="1.2" fill="#a3a3a3" stroke="#737373" stroke-width="0.5" opacity="0.6"/>
<circle cx="438.064" cy="122.992" r="1.2" fill="#a3a3a3" stroke="#737373" stroke-width="0.5" opacity="0.6"/>
<circle cx="470.572" cy="122.992" r="1.2" fill="#a3a3a3" stroke="#737373" stroke-width="0.5" opacity="0.6"/>
<circle cx="503.08" cy="122.992" r="1.2" fill="#a3a3a3" stroke="#737373" stroke-width="0.5" opacity="0.6"/>
<circle cx="535.588" cy="122.992" r="1.2" fill="#a3a3a3" stroke="#737373" stroke-width="0.5" opacity="0.6"/>
<circle cx="568.096" cy="122.992" r="1.2" fill="#a3a3a3" stroke="#737373" stroke-width="0.5" opacity="0.6"/>
<circle cx="600.608" cy="122.992" r="1.2" fill="#a3a3a3" stroke="#737373" stroke-width="0.5" opacity="0.6"/>
<circle cx="633.116" cy="122.992" r="1.2" fill="#a3a3a3" stroke="#737373" stroke-width="0.5" opacity="0.6"/>
<circle cx="665.624" cy="122.992" r="1.2" fill="#a3a3a3" stroke="#737373" stroke-width="0.5" opacity="0.6"/>
<circle cx="698.132" cy="122.992" r="1.2" fill="#a3a3a3" stroke="#737373" stroke-width="0.5" opacity="0.6"/>
<circle cx="722.992" cy="82.832" r="1.2" fill="#a3a3a3" stroke="#737373" stroke-width="0.5" opacity="0.6"/>
<circle cx="683.804" cy="57.004" r="1.2" fill="#a3a3a3" stroke="#737373" stroke-width="0.5" opacity="0.6"/>
<circle cx="651.296" cy="57.004" r="1.2" fill="#a3a3a3" stroke="#737373" stroke-width="0.5" opacity="0.6"/>
<circle cx="618.784" cy="57.004" r="1.2" fill="#a3a3a3" stroke="#737373" stroke-width="0.5" opacity="0.6"/>
<circle cx="586.276" cy="57.004" r="1.2" fill="#a3a3a3" stroke="#737373" stroke-width="0.5" opacity="0.6"/>
<circle cx="553.768" cy="57.004" r="1.2" fill="#a3a3a3" stroke="#737373" stroke-width="0.5" opacity="0.6"/>
<circle cx="521.26" cy="57.004" r="1.2" fill="#a3a3a3" stroke="#737373" stroke-width="0.5" opacity="0.6"/>
<circle cx="488.752" cy="57.004" r="1.2" fill="#a3a3a3" stroke="#737373" stroke-width="0.5" opacity="0.6"/>
<circle cx="456.24" cy="57.004" r="1.2" fill="#a3a3a3" stroke="#737373" stroke-width="0.5" opacity="0.6"/>
<circle cx="427.512" cy="90.484" r="1.2" fill="#a3a3a3" stroke="#737373" stroke-width="0.5" opacity="0.6"/>
<circle cx="460.02" cy="90.484" r="1.2" fill="#a3a3a3" stroke="#737373" stroke-width="0.5" opacity="0.6"/>
<circle cx="492.528" cy="90.484" r="1.2" fill="#a3a3a3" stroke="#737373" stroke-width="0.5" opacity="0.6"/>
<circle cx="525.04" cy="90.484" r="1.2" fill="#a3a3a3" stroke="#737373" stroke-width="0.5" opacity="0.6"/>
<circle cx="557.548" cy="90.484" r="1.2" fill="#a3a3a3" stroke="#737373" stroke-width="0.5" opacity="0.6"/>
<circle cx="590.056" cy="90.484" r="1.2" fill="#a3a3a3" stroke="#737373" stroke-width="0.5" opacity="0.6"/>
<circle cx="622.564" cy="90.484" r="1.2" fill="#a3a3a3" stroke="#737373" stroke-width="0.5" opacity="0.6"/>
<circle cx="655.072" cy="90.484" r="1.2" fill="#a3a3a3" stroke="#737373" stroke-width="0.5" opacity="0.6"/>
<circle cx="687.584" cy="90.484" r="1.2" fill="#a3a3a3" stroke="#737373" stroke-width="0.5" opacity="0.6"/>
<rect x="177.08" y="118.16" width="28.0" height="28.0" fill="#2563eb" stroke="#374151" stroke-width="1" rx="1" opacity="0.85"/>
<text x="191.08" y="130.16" text-anchor="middle" fill="white" font-size="8" font-weight="bold">U1</text>
<text x="191.08" y="137.16" text-anchor="middle" fill="white" font-size="7">nRF52840</text>
<rect x="208.92" y="106.72" width="12.0" height="12.0" fill="#059669" stroke="#374151" stroke-width="1" rx="1" opacity="0.85"/>
<text x="214.92" y="110.72" text-anchor="middle" fill="white" font-size="6" font-weight="bold">U2</text>
<text x="214.92" y="117.72" text-anchor="middle" fill="white" font-size="5">LIS3DH</text>
<rect x="197.32" y="106.76" width="8.0" height="8.0" fill="#059669" stroke="#374151" stroke-width="1" rx="1" opacity="0.85"/>
<text x="201.32" y="108.76" text-anchor="middle" fill="white" font-size="5" font-weight="bold">U3</text>
<text x="201.32" y="115.76" text-anchor="middle" fill="white" font-size="4">TMP117</text>
<rect x="207.2" y="125.50000000000001" width="14.0" height="10.6" fill="#dc2626" stroke="#ef4444" stroke-width="2" rx="1" opacity="1"/>
<text x="214.2" y="128.8" text-anchor="middle" fill="white" font-size="6" font-weight="bold">U4</text>
<text x="214.2" y="135.8" text-anchor="middle" fill="white" font-size="5">ICS-43434</text>
<text x="214.2" y="144.10000000000002" text-anchor="middle" fill="#fca5a5" font-size="5" font-weight="bold">HAND SOLDER</text>
<rect x="182.2" y="89.56" width="12.0" height="12.0" fill="#7c3aed" stroke="#374151" stroke-width="1" rx="1" opacity="0.85"/>
<text x="188.2" y="93.56" text-anchor="middle" fill="white" font-size="6" font-weight="bold">U5</text>
<text x="188.2" y="100.56" text-anchor="middle" fill="white" font-size="5">AD8606</text>
<rect x="223.16" y="109.68" width="8.0" height="8.0" fill="#dc2626" stroke="#ef4444" stroke-width="2" rx="1" opacity="1"/>
<text x="227.16" y="111.68" text-anchor="middle" fill="white" font-size="5" font-weight="bold">U6</text>
<text x="227.16" y="118.68" text-anchor="middle" fill="white" font-size="4">TPS62840</text>
<text x="227.16" y="125.68" text-anchor="middle" fill="#fca5a5" font-size="5" font-weight="bold">HAND SOLDER</text>
<rect x="243.56" y="121.0" width="12.0" height="12.0" fill="#ea580c" stroke="#374151" stroke-width="1" rx="1" opacity="0.85"/>
<text x="249.56" y="125.0" text-anchor="middle" fill="white" font-size="6" font-weight="bold">U7</text>
<text x="249.56" y="132.0" text-anchor="middle" fill="white" font-size="5">BQ24072</text>
<rect x="207.28" y="142.55999999999997" width="8.0" height="4.8" fill="#dc2626" stroke="#ef4444" stroke-width="2" rx="1" opacity="1"/>
<text x="211.28" y="142.95999999999998" text-anchor="middle" fill="white" font-size="5" font-weight="bold">Y1</text>
<text x="211.28" y="149.95999999999998" text-anchor="middle" fill="white" font-size="4">32.768kHz</text>
<text x="211.28" y="155.35999999999999" text-anchor="middle" fill="#fca5a5" font-size="5" font-weight="bold">HAND SOLDER</text>
<rect x="117.44" y="112.48" width="4.0" height="2.0" fill="#16a34a" stroke="#374151" stroke-width="1" rx="1" opacity="0.85"/>
<text x="119.44" y="111.48" text-anchor="middle" fill="white" font-size="5" font-weight="bold">D1</text>
<text x="119.44" y="118.48" text-anchor="middle" fill="white" font-size="4">LED_GRN</text>
<rect x="224.64" y="101.19999999999999" width="8.0" height="4.8" fill="#78716c" stroke="#374151" stroke-width="1" rx="1" opacity="0.85"/>
<text x="228.64" y="101.6" text-anchor="middle" fill="white" font-size="5" font-weight="bold">L1</text>
<text x="228.64" y="108.6" text-anchor="middle" fill="white" font-size="4">2.2uH</text>
<rect x="230.6" y="139.96" width="36.0" height="30.0" fill="#dc2626" stroke="#ef4444" stroke-width="2" rx="1" opacity="1"/>
<text x="248.6" y="152.96" text-anchor="middle" fill="white" font-size="8" font-weight="bold">J1</text>
<text x="248.6" y="159.96" text-anchor="middle" fill="white" font-size="7">USB-C</text>
<text x="248.6" y="177.96" text-anchor="middle" fill="#fca5a5" font-size="5" font-weight="bold">HAND SOLDER</text>
<rect x="238.08" y="107.04" width="16.0" height="12.0" fill="#dc2626" stroke="#ef4444" stroke-width="2" rx="1" opacity="1"/>
<text x="246.08" y="111.04" text-anchor="middle" fill="white" font-size="6" font-weight="bold">J2</text>
<text x="246.08" y="118.04" text-anchor="middle" fill="white" font-size="5">BAT JST</text>
<text x="246.08" y="127.04" text-anchor="middle" fill="#fca5a5" font-size="5" font-weight="bold">HAND SOLDER</text>
<rect x="224.36" y="95.32" width="4.0" height="2.0" fill="#78716c" stroke="#374151" stroke-width="1" rx="1" opacity="0.85"/>
<text x="226.36" y="94.32" text-anchor="middle" fill="white" font-size="5" font-weight="bold">R1</text>
<text x="226.36" y="101.32" text-anchor="middle" fill="white" font-size="4">4.7k</text>
<rect x="203.16" y="99.16" width="2.0" height="4.0" fill="#78716c" stroke="#374151" stroke-width="1" rx="1" opacity="0.85"/>
<text x="204.16" y="99.16" text-anchor="middle" fill="white" font-size="5" font-weight="bold">R2</text>
<text x="204.16" y="106.16" text-anchor="middle" fill="white" font-size="4">4.7k</text>
<rect x="203.16" y="90.52" width="2.0" height="4.0" fill="#78716c" stroke="#374151" stroke-width="1" rx="1" opacity="0.85"/>
<text x="204.16" y="90.52" text-anchor="middle" fill="white" font-size="5" font-weight="bold">C1</text>
<text x="204.16" y="97.52" text-anchor="middle" fill="white" font-size="4">100nF</text>
<rect x="224.36" y="121.04" width="4.0" height="2.0" fill="#78716c" stroke="#374151" stroke-width="1" rx="1" opacity="0.85"/>
<text x="226.36" y="120.04" text-anchor="middle" fill="white" font-size="5" font-weight="bold">C2</text>
<text x="226.36" y="127.04" text-anchor="middle" fill="white" font-size="4">100nF</text>
<rect x="235.07999999999998" y="113.76" width="4.8" height="8.0" fill="#78716c" stroke="#374151" stroke-width="1" rx="1" opacity="0.85"/>
<text x="237.48" y="115.76" text-anchor="middle" fill="white" font-size="5" font-weight="bold">C3</text>
<text x="237.48" y="122.76" text-anchor="middle" fill="white" font-size="4">10uF</text>
<rect x="210.2" y="98.44" width="8.0" height="4.8" fill="#78716c" stroke="#374151" stroke-width="1" rx="1" opacity="0.85"/>
<text x="214.2" y="98.84" text-anchor="middle" fill="white" font-size="5" font-weight="bold">C4</text>
<text x="214.2" y="105.84" text-anchor="middle" fill="white" font-size="4">10uF</text>
<rect x="133.76" y="119.16" width="2.0" height="4.0" fill="#78716c" stroke="#374151" stroke-width="1" rx="1" opacity="0.85"/>
<text x="134.76" y="119.16" text-anchor="middle" fill="white" font-size="5" font-weight="bold">C5</text>
<text x="134.76" y="126.16" text-anchor="middle" fill="white" font-size="4">12pF</text>
<rect x="229.16" y="127.75999999999999" width="2.0" height="4.0" fill="#78716c" stroke="#374151" stroke-width="1" rx="1" opacity="0.85"/>
<text x="230.16" y="127.75999999999999" text-anchor="middle" fill="white" font-size="5" font-weight="bold">C6</text>
<text x="230.16" y="134.76" text-anchor="middle" fill="white" font-size="4">12pF</text>
<circle cx="179.08" cy="120.16" r="2" fill="#ef4444" opacity="0.9"/>
<text x="179.08" y="121.66" text-anchor="middle" fill="white" font-size="3">1</text>
<circle cx="223.96" cy="110.48" r="2" fill="#ef4444" opacity="0.9"/>
<text x="223.96" y="111.98" text-anchor="middle" fill="white" font-size="3">1</text>
<circle cx="208.2" cy="126.39999999999999" r="2" fill="#ef4444" opacity="0.9"/>
<text x="208.2" y="127.89999999999999" text-anchor="middle" fill="white" font-size="3">1</text>
<text x="20" y="190" fill="white" font-size="11" font-weight="bold">LEGEND</text>
<rect x="20" y="200" width="12" height="12" fill="#2563eb" rx="1"/>
<text x="36" y="210" fill="#d1d5db" font-size="9">MCU (nRF52840)</text>
<rect x="280" y="200" width="12" height="12" fill="#059669" rx="1"/>
<text x="296" y="210" fill="#d1d5db" font-size="9">Sensors (LIS3DH, TMP117)</text>
<rect x="540" y="200" width="12" height="12" fill="#7c3aed" rx="1"/>
<text x="556" y="210" fill="#d1d5db" font-size="9">Analog (AD8606 Op-Amp)</text>
<rect x="20" y="218" width="12" height="12" fill="#ea580c" rx="1"/>
<text x="36" y="228" fill="#d1d5db" font-size="9">Power (BQ24072 Charger)</text>
<rect x="280" y="218" width="12" height="12" fill="#78716c" rx="1"/>
<text x="296" y="228" fill="#d1d5db" font-size="9">Passives (R, C, L)</text>
<rect x="540" y="218" width="12" height="12" fill="#16a34a" rx="1"/>
<text x="556" y="228" fill="#d1d5db" font-size="9">LED</text>
<rect x="20" y="236" width="12" height="12" fill="#dc2626" rx="1"/>
<text x="36" y="246" fill="#d1d5db" font-size="9">HAND SOLDER (U4, U6, Y1, J1, J2)</text>
<text x="20" y="258" fill="#fbbf24" font-size="10" font-weight="bold">SIGNAL FLOW</text>
<text x="20" y="273" fill="#9ca3af" font-size="8">PVDF (temples) → AD8606 (U5) → nRF52840 ADC → BLE → Phone</text>
<text x="20" y="286" fill="#9ca3af" font-size="8">LIS3DH (U2) + TMP117 (U3) → I²C → nRF52840 → BLE → Phone</text>
<text x="20" y="299" fill="#9ca3af" font-size="8">ICS-43434 (U4) → I²S → nRF52840 → BLE → Phone</text>
<text x="20" y="312" fill="#9ca3af" font-size="8">USB-C (J1) → BQ24072 (U7) → Battery → TPS62840 (U6) + L1 → 3.3V</text>
</svg>